HIERARCHY
ROOT hip
{
  OFFSET 0.0 0.0 0.0
  CHANNELS 6 Xposition Yposition Zposition Zrotation Yrotation Xrotation
  JOINT abdomen
  {
    OFFSET 0.0 20.6881 -0.73152
    CHANNELS 3 Zrotation Xrotation Yrotation
    JOINT chest
    {
      OFFSET 0.0 11.7043 -0.48768
      CHANNELS 3 Zrotation Xrotation Yrotation
      JOINT neck
      {
        OFFSET 0.0 22.1894 -2.19456
        CHANNELS 3 Zrotation Xrotation Yrotation
        JOINT head
        {
          OFFSET -0.24384 7.07133 1.2192
          CHANNELS 3 Zrotation Xrotation Yrotation
          JOINT leftEye
          {
            OFFSET 4.14528 8.04674 8.04672
            CHANNELS 3 Zrotation Xrotation Yrotation
            End Site
            {
              OFFSET 1.0 0.0 0.0
            }
          }
          JOINT rightEye
          {
            OFFSET -3.6576 8.04674 8.04672
            CHANNELS 3 Zrotation Xrotation Yrotation
            End Site
            {
              OFFSET 1.0 0.0 0.0
            }
          }
        }
      }
      JOINT rCollar
      {
        OFFSET -2.68224 19.2634 -4.8768
        CHANNELS 3 Zrotation Xrotation Yrotation
        JOINT rShldr
        {
          OFFSET -8.77824 -1.95073 1.46304
          CHANNELS 3 Zrotation Xrotation Yrotation
          JOINT rForeArm
          {
            OFFSET -28.1742 -1.7115 0.48768
            CHANNELS 3 Zrotation Xrotation Yrotation
            JOINT rHand
            {
              OFFSET -22.5879 0.773209 7.07136
              CHANNELS 3 Zrotation Xrotation Yrotation
              JOINT rThumb1
              {
                OFFSET -1.2192 -0.487915 3.41376
                CHANNELS 3 Zrotation Xrotation Yrotation
                JOINT rThumb2
                {
                  OFFSET -3.37035 -0.52449 3.41376
                  CHANNELS 3 Zrotation Xrotation Yrotation
                  End Site
                  {
                    OFFSET -1.78271 -1.18214 1.43049
                  }
                }
              }
              JOINT rIndex1
              {
                OFFSET -7.75947 0.938293 5.60832
                CHANNELS 3 Zrotation Xrotation Yrotation
                JOINT rIndex2
                {
                  OFFSET -2.54057 -0.884171 1.56538
                  CHANNELS 3 Zrotation Xrotation Yrotation
                  End Site
                  {
                    OFFSET -1.62519 -0.234802 1.16502
                  }
                }
              }
              JOINT rMid1
              {
                OFFSET -8.24714 1.18213 3.41376
                CHANNELS 3 Zrotation Xrotation Yrotation
                JOINT rMid2
                {
                  OFFSET -3.10165 -0.590103 1.0647
                  CHANNELS 3 Zrotation Xrotation Yrotation
                  End Site
                  {
                    OFFSET -2.48547 -0.328903 0.83742
                  }
                }
              }
              JOINT rRing1
              {
                OFFSET -8.82822 0.546677 1.51678
                CHANNELS 3 Zrotation Xrotation Yrotation
                JOINT rRing2
                {
                  OFFSET -2.60934 -0.819778 -0.0198488
                  CHANNELS 3 Zrotation Xrotation Yrotation
                  End Site
                  {
                    OFFSET -2.33842 -0.294052 0.168128
                  }
                }
              }
              JOINT rPinky1
              {
                OFFSET -8.27202 -0.0477905 -0.4584
                CHANNELS 3 Zrotation Xrotation Yrotation
                JOINT rPinky2
                {
                  OFFSET -1.82734 -0.647385 -0.700984
                  CHANNELS 3 Zrotation Xrotation Yrotation
                  End Site
                  {
                    OFFSET -1.69225 -0.51767 -0.607171
                  }
                }
              }
            }
          }
        }
      }
      JOINT lCollar
      {
        OFFSET 2.68224 19.2634 -4.8768
        CHANNELS 3 Zrotation Xrotation Yrotation
        JOINT lShldr
        {
          OFFSET 8.77824 -1.95073 1.46304
          CHANNELS 3 Zrotation Xrotation Yrotation
          JOINT lForeArm
          {
            OFFSET 28.1742 -1.7115 0.48768
            CHANNELS 3 Zrotation Xrotation Yrotation
            JOINT lHand
            {
              OFFSET 22.5879 0.773209 7.07136
              CHANNELS 3 Zrotation Xrotation Yrotation
              JOINT lThumb1
              {
                OFFSET 1.2192 -0.487915 3.41376
                CHANNELS 3 Zrotation Xrotation Yrotation
                JOINT lThumb2
                {
                  OFFSET 3.37035 -0.52449 3.41376
                  CHANNELS 3 Zrotation Xrotation Yrotation
                  End Site
                  {
                    OFFSET 1.78271 -1.18214 1.43049
                  }
                }
              }
              JOINT lIndex1
              {
                OFFSET 7.75947 0.938293 5.60832
                CHANNELS 3 Zrotation Xrotation Yrotation
                JOINT lIndex2
                {
                  OFFSET 2.54057 -0.884171 1.56538
                  CHANNELS 3 Zrotation Xrotation Yrotation
                  End Site
                  {
                    OFFSET 1.62519 -0.234802 1.16502
                  }
                }
              }
              JOINT lMid1
              {
                OFFSET 8.24714 1.18213 3.41376
                CHANNELS 3 Zrotation Xrotation Yrotation
                JOINT lMid2
                {
                  OFFSET 3.10165 -0.590103 1.0647
                  CHANNELS 3 Zrotation Xrotation Yrotation
                  End Site
                  {
                    OFFSET 2.48547 -0.328903 0.83742
                  }
                }
              }
              JOINT lRing1
              {
                OFFSET 8.82822 0.546677 1.51678
                CHANNELS 3 Zrotation Xrotation Yrotation
                JOINT lRing2
                {
                  OFFSET 2.60934 -0.819778 -0.0198488
                  CHANNELS 3 Zrotation Xrotation Yrotation
                  End Site
                  {
                    OFFSET 2.33842 -0.294052 0.168128
                  }
                }
              }
              JOINT lPinky1
              {
                OFFSET 8.27202 -0.0477905 -0.4584
                CHANNELS 3 Zrotation Xrotation Yrotation
                JOINT lPinky2
                {
                  OFFSET 1.82734 -0.647385 -0.700984
                  CHANNELS 3 Zrotation Xrotation Yrotation
                  End Site
                  {
                    OFFSET 1.69225 -0.51767 -0.607171
                  }
                }
              }
            }
          }
        }
      }
    }
  }
  JOINT rButtock
  {
    OFFSET -8.77824 4.35084 1.2192
    CHANNELS 3 Zrotation Xrotation Yrotation
    JOINT rThigh
    {
      OFFSET 0.0 -1.70687 -2.19456
      CHANNELS 3 Zrotation Xrotation Yrotation
      JOINT rShin
      {
        OFFSET 0.0 -36.8199 0.73152
        CHANNELS 3 Zrotation Xrotation Yrotation
        JOINT rFoot
        {
          OFFSET 0.73152 -45.1104 -5.12064
          CHANNELS 3 Zrotation Xrotation Yrotation
          End Site
          {
            OFFSET -1.1221 -3.69964 12.103
          }
        }
      }
    }
  }
  JOINT lButtock
  {
    OFFSET 8.77824 4.35084 1.2192
    CHANNELS 3 Zrotation Xrotation Yrotation
    JOINT lThigh
    {
      OFFSET 0.0 -1.70687 -2.19456
      CHANNELS 3 Zrotation Xrotation Yrotation
      JOINT lShin
      {
        OFFSET 0.0 -36.8199 0.73152
        CHANNELS 3 Zrotation Xrotation Yrotation
        JOINT lFoot
        {
          OFFSET -0.73152 -45.1104 -5.12064
          CHANNELS 3 Zrotation Xrotation Yrotation
          End Site
          {
            OFFSET 1.1221 -3.69964 12.103
          }
        }
      }
    }
  }
}
MOTION
Frames: 8
Frame Time: 0.00833333
6.23133 82.4165 -32.4826 2.774 6.9153 4.6718 -2.54955 5.13719 -5.00837 5.9781 -5.13211 -1.11293 5.27529 0.0206808 -0.241644 -9.38078 -3.95335 -2.27446 -0.0 0.0 0.0 -0.0 0.0 0.0 -1.03833e-13 -1.91332e-13 -2.57168e-13 70.1845 -18.0037 -24.2016 -6.07948 -2.07811 10.6295 -0.678896 22.7427 3.37643 -5.48843e-11 -1.02267e-09 1.69619e-09 -6.9499e-11 -1.75241e-09 2.93109e-09 -5.48797e-11 -1.02267e-09 1.69618e-09 7.73091 5.47488 0.417314 -5.48866e-11 -1.02267e-09 1.69619e-09 2.90554 0.965183 0.102902 -5.48801e-11 -1.02267e-09 1.69619e-09 10.2786 0.731801 0.0259123 -5.48845e-11 -1.02267e-09 1.6962e-09 2.22167 -0.733487 -0.20892 -1.03748e-13 -1.91327e-13 -2.57439e-13 -67.2761 29.1387 -13.589 19.8009 -12.7632 -38.1992 0.462763 -18.9745 2.76967 1.08188e-09 1.94185e-09 1.59905e-10 1.85978e-09 3.33456e-09 2.9223e-10 1.08187e-09 1.94184e-09 1.59931e-10 -7.73091 5.47488 -0.417314 1.08188e-09 1.94185e-09 1.59912e-10 -2.90554 0.965183 -0.102902 1.08188e-09 1.94185e-09 1.59912e-10 -10.2786 0.731801 -0.0259123 1.08189e-09 1.94185e-09 1.59903e-10 -2.22167 -0.733487 0.20892 -2.03217e-16 0.0 -3.88251e-19 -5.60474 -37.0869 -3.8309 -0.298862 36.2901 0.348206 -3.4091 -4.38734 -16.1505 2.03217e-16 0.0 3.88251e-19 -0.777258 3.41368 -3.39038 0.287631 36.8495 -0.572183 0.466927 25.5215 -0.0825708
6.11637 82.5317 -30.9682 2.3972 6.7525 4.4362 -1.87744 5.37336 -4.68557 5.81673 -5.09688 -1.01143 5.21451 -0.0707613 -0.293851 -9.27488 -3.81912 -2.35387 -0.0 0.0 0.0 -0.0 0.0 0.0 -9.8315e-14 -1.537e-13 -9.20486e-14 71.2917 -16.1735 -23.3411 -6.23436 -2.14781 10.9072 -0.574132 20.9785 3.08911 3.20772e-10 -1.42953e-10 1.79399e-09 5.80535e-10 -2.33404e-10 3.09366e-09 3.2078e-10 -1.42949e-10 1.79398e-09 7.73091 5.47488 0.417314 3.20772e-10 -1.42955e-10 1.79399e-09 2.90554 0.965183 0.102902 3.20779e-10 -1.42954e-10 1.79399e-09 10.2786 0.731801 0.0259123 3.20776e-10 -1.42954e-10 1.794e-09 2.22167 -0.733487 -0.20892 -9.82236e-14 -1.53694e-13 -9.22695e-14 -67.4434 29.4961 -13.121 19.6767 -12.6101 -37.9024 0.475486 -19.2201 2.8084 6.69841e-10 7.72972e-10 3.23919e-10 1.14659e-09 1.30966e-09 5.71029e-10 6.69838e-10 7.7297e-10 3.23942e-10 -7.73091 5.47488 -0.417314 6.69841e-10 7.72974e-10 3.23928e-10 -2.90554 0.965183 -0.102902 6.69837e-10 7.72974e-10 3.23927e-10 -10.2786 0.731801 -0.0259123 6.69849e-10 7.72972e-10 3.23917e-10 -2.22167 -0.733487 0.20892 -2.03217e-16 0.0 -3.88251e-19 -4.91295 -35.956 -3.91745 -0.302763 36.3774 0.318788 -3.42269 -4.75945 -15.8342 2.03217e-16 0.0 3.88251e-19 -0.328655 1.15314 -3.1862 0.361733 40.4562 -0.634525 0.844637 27.7167 -1.09919
5.98936 82.6494 -29.4448 1.9247 6.5836 4.1654 -1.03275 5.61211 -4.33421 5.60275 -5.07123 -0.902362 5.1629 -0.164098 -0.348901 -9.21014 -3.73103 -2.44677 -0.0 0.0 0.0 -0.0 0.0 0.0 -9.19848e-14 -1.20069e-13 9.74045e-15 72.3751 -14.224 -22.467 -6.43321 -2.24034 11.2624 -0.469665 19.1052 2.79032 6.02434e-10 3.57706e-10 1.705e-09 1.06564e-09 6.29578e-10 2.93557e-09 6.02444e-10 3.57709e-10 1.70499e-09 7.73091 5.47488 0.417314 6.02434e-10 3.57703e-10 1.705e-09 2.90554 0.965183 0.102902 6.02443e-10 3.57705e-10 1.70499e-09 10.2786 0.731801 0.0259123 6.0244e-10 3.57704e-10 1.705e-09 2.22167 -0.733487 -0.20892 -9.18971e-14 -1.20061e-13 9.54166e-15 -67.6306 29.8672 -12.6718 19.5389 -12.4427 -37.5719 0.483554 -19.3723 2.83247 4.83899e-10 1.85431e-10 3.96202e-10 8.25338e-10 2.92894e-10 6.94095e-10 4.83901e-10 1.85434e-10 3.96221e-10 -7.73091 5.47488 -0.417314 4.839e-10 1.85434e-10 3.96211e-10 -2.90554 0.965183 -0.102902 4.83894e-10 1.85434e-10 3.96209e-10 -10.2786 0.731801 -0.0259123 4.83907e-10 1.85432e-10 3.96199e-10 -2.22167 -0.733487 0.20892 -2.03217e-16 0.0 -3.88251e-19 -4.01242 -34.7455 -3.8952 -0.302621 36.3158 0.295819 -3.44347 -5.08148 -15.6325 2.03217e-16 0.0 3.88251e-19 0.289642 -1.1101 -2.90275 0.442377 43.9301 -0.71023 1.10393 28.5354 -1.73427
5.8301 82.7703 -27.9109 1.2934 6.4002 3.8743 0.0854908 5.87085 -3.9417 5.3044 -5.0564 -0.782009 5.12921 -0.268181 -0.408373 -9.21701 -3.69923 -2.56143 -0.0 0.0 0.0 -0.0 0.0 0.0 -8.7415e-14 -8.7041e-14 1.79077e-14 73.4584 -12.0879 -21.5722 -6.69016 -2.36212 11.7225 -0.36052 17.0132 2.46258 8.27583e-10 3.01744e-10 1.27119e-09 1.44866e-09 5.28675e-10 2.1842e-09 8.27591e-10 3.01748e-10 1.27118e-09 7.73091 5.47488 0.417314 8.27582e-10 3.01742e-10 1.27119e-09 2.90554 0.965183 0.102902 8.27591e-10 3.01743e-10 1.27118e-09 10.2786 0.731801 0.0259123 8.27586e-10 3.01742e-10 1.27119e-09 2.22167 -0.733487 -0.20892 -8.73462e-14 -8.7031e-14 1.76821e-14 -67.8257 30.2697 -12.2698 19.3873 -12.2607 -37.211 0.485932 -19.4156 2.83936 7.18858e-10 6.16809e-10 3.27482e-10 1.23347e-09 1.0426e-09 5.78869e-10 7.18862e-10 6.16814e-10 3.27498e-10 -7.73091 5.47488 -0.417314 7.18859e-10 6.16811e-10 3.27491e-10 -2.90554 0.965183 -0.102902 7.18854e-10 6.16812e-10 3.27487e-10 -10.2786 0.731801 -0.0259123 7.18865e-10 6.16809e-10 3.27476e-10 -2.22167 -0.733487 0.20892 -2.03217e-16 0.0 -3.88251e-19 -2.83058 -33.4132 -3.75437 -0.297349 36.0555 0.279892 -3.47253 -5.33311 -15.5592 2.03217e-16 0.0 3.88251e-19 1.16756 -3.36742 -2.52218 0.534364 47.3468 -0.806945 1.11963 27.4536 -1.84895
5.62654 82.8917 -26.3685 0.4622 6.1969 3.5888 1.38656 6.15847 -3.51456 4.94715 -5.04744 -0.65218 5.10079 -0.386656 -0.473436 -9.25789 -3.69468 -2.69329 -0.0 0.0 0.0 -0.0 0.0 0.0 -8.1093e-14 -4.93544e-14 -2.2618e-14 74.5622 -9.67714 -20.6473 -6.99979 -2.51018 12.2812 -0.25774 14.628 2.09904 1.03346e-09 -7.64921e-11 5.85709e-10 1.79509e-09 -1.30804e-10 9.99397e-10 1.03347e-09 -7.64883e-11 5.857e-10 7.73091 5.47488 0.417314 1.03346e-09 -7.64928e-11 5.85708e-10 2.90554 0.965183 0.102902 1.03347e-09 -7.64924e-11 5.85703e-10 10.2786 0.731801 0.0259123 1.03346e-09 -7.64935e-11 5.85709e-10 2.22167 -0.733487 -0.20892 -8.10555e-14 -4.93412e-14 -2.29006e-14 -68.0227 30.7056 -11.9068 19.2149 -12.0551 -36.8064 0.485396 -19.4039 2.83754 1.19514e-09 1.62873e-09 1.69402e-10 2.06011e-09 2.79952e-09 3.12289e-10 1.19514e-09 1.62874e-09 1.69413e-10 -7.73091 5.47488 -0.417314 1.19514e-09 1.62873e-09 1.69409e-10 -2.90554 0.965183 -0.102902 1.19513e-09 1.62873e-09 1.69402e-10 -10.2786 0.731801 -0.0259123 1.19514e-09 1.62873e-09 1.69392e-10 -2.22167 -0.733487 0.20892 -2.03217e-16 0.0 -3.88251e-19 -1.47849 -31.975 -3.57956 -0.288338 35.6509 0.270123 -3.52128 -5.59768 -15.5589 2.03217e-16 0.0 3.88251e-19 2.23285 -5.65097 -2.06666 0.645315 50.7363 -0.929069 0.95166 24.9434 -1.56085
5.38342 83.0097 -24.8221 -0.5416 5.979 3.3336 2.70946 6.42893 -3.07599 4.58353 -5.04531 -0.519894 5.06737 -0.49687 -0.539664 -9.29315 -3.71628 -2.82718 -0.0 0.0 0.0 -0.0 0.0 0.0 -6.98659e-14 -1.86e-14 -7.73785e-14 75.5822 -7.1977 -19.7324 -7.33056 -2.67116 12.8814 -0.179517 12.252 1.74675 1.1078e-09 -5.53244e-10 -6.57372e-11 1.91441e-09 -9.60159e-10 -1.25317e-10 1.10781e-09 -5.5324e-10 -6.5747e-11 7.73091 5.47488 0.417314 1.1078e-09 -5.53243e-10 -6.57381e-11 2.90554 0.965183 0.102902 1.10781e-09 -5.53244e-10 -6.57441e-11 10.2786 0.731801 0.0259123 1.1078e-09 -5.53245e-10 -6.57381e-11 2.22167 -0.733487 -0.20892 -6.98623e-14 -1.85845e-14 -7.77135e-14 -68.2529 31.1342 -11.5249 19.0239 -11.8309 -36.3616 0.481574 -19.3314 2.82607 1.60911e-09 2.56542e-09 -5.91146e-12 2.77915e-09 4.42689e-09 1.49064e-11 1.60911e-09 2.56543e-09 -5.90504e-12 -7.73091 5.47488 -0.417314 1.60911e-09 2.56542e-09 -5.90661e-12 -2.90554 0.965183 -0.102902 1.60911e-09 2.56542e-09 -5.9158e-12 -10.2786 0.731801 -0.0259123 1.60911e-09 2.56542e-09 -5.92545e-12 -2.22167 -0.733487 0.20892 -2.03217e-16 0.0 -3.88251e-19 -0.0663579 -30.5125 -3.34732 -0.277409 35.1731 0.266113 -3.58658 -5.85644 -15.6421 2.03217e-16 0.0 3.88251e-19 3.3757 -7.95672 -1.55243 0.772036 53.9058 -1.06824 0.732641 21.8424 -1.04621
5.12065 83.1223 -23.2754 -1.6257 5.761 3.1335 3.895 6.63613 -2.64931 4.26611 -5.05095 -0.392165 5.01884 -0.576169 -0.60263 -9.28315 -3.76289 -2.94792 -0.0 0.0 0.0 -0.0 0.0 0.0 -5.05805e-14 -6.36887e-15 -1.11916e-13 76.4328 -4.86206 -18.8509 -7.65199 -2.83203 13.4661 -0.129024 10.1882 1.4473 9.38348e-10 -9.04753e-10 -3.97458e-10 1.61609e-09 -1.57069e-09 -6.9641e-10 9.38348e-10 -9.0475e-10 -3.97468e-10 7.73091 5.47488 0.417314 9.38344e-10 -9.04752e-10 -3.97458e-10 2.90554 0.965183 0.102902 9.38353e-10 -9.04753e-10 -3.97464e-10 10.2786 0.731801 0.0259123 9.38341e-10 -9.04753e-10 -3.97458e-10 2.22167 -0.733487 -0.20892 -5.06043e-14 -6.35296e-15 -1.12264e-13 -68.5479 31.514 -11.0658 18.8171 -11.5929 -35.88 0.474167 -19.1923 2.80404 1.65715e-09 2.77109e-09 -1.26332e-10 2.86449e-09 4.78792e-09 -1.92723e-10 1.65715e-09 2.7711e-09 -1.26328e-10 -7.73091 5.47488 -0.417314 1.65715e-09 2.77109e-09 -1.26328e-10 -2.90554 0.965183 -0.102902 1.65715e-09 2.77109e-09 -1.26339e-10 -10.2786 0.731801 -0.0259123 1.65716e-09 2.77109e-09 -1.26348e-10 -2.22167 -0.733487 0.20892 -2.03217e-16 0.0 -3.88251e-19 1.29409 -29.1067 -3.03427 -0.266303 34.6933 0.267407 -3.66541 -6.09058 -15.8191 2.03217e-16 0.0 3.88251e-19 4.48358 -10.2803 -0.995369 0.903916 56.6626 -1.20965 0.555078 18.9899 -0.457011
4.86257 83.2249 -21.732 -2.6725 5.5412 2.9924 4.97206 6.75901 -2.23172 3.99498 -5.06661 -0.267632 4.94297 -0.614443 -0.665225 -9.20367 -3.84063 -3.05643 -0.0 0.0 0.0 -0.0 0.0 0.0 -2.50516e-14 -2.5774e-14 -1.20589e-13 77.1149 -2.674 -18.0043 -7.96838 -2.99587 14.0418 -0.0925815 8.48123 1.20203 4.23006e-10 -1.13385e-09 -2.27954e-10 7.25474e-10 -1.96615e-09 -3.99601e-10 4.23007e-10 -1.13385e-09 -2.27963e-10 7.73091 5.47488 0.417314 4.23003e-10 -1.13385e-09 -2.27952e-10 2.90554 0.965183 0.102902 4.23012e-10 -1.13385e-09 -2.27958e-10 10.2786 0.731801 0.0259123 4.23e-10 -1.13385e-09 -2.27951e-10 2.22167 -0.733487 -0.20892 -2.50931e-14 -2.57608e-14 -1.20881e-13 -68.9086 31.8545 -10.526 18.5901 -11.3365 -35.355 0.463279 -18.9818 2.77086 1.19013e-09 1.88451e-09 -1.7677e-10 2.05779e-09 3.25712e-09 -2.86931e-10 1.19013e-09 1.88452e-09 -1.76769e-10 -7.73091 5.47488 -0.417314 1.19013e-09 1.88451e-09 -1.76768e-10 -2.90554 0.965183 -0.102902 1.19013e-09 1.88451e-09 -1.76778e-10 -10.2786 0.731801 -0.0259123 1.19013e-09 1.88451e-09 -1.76785e-10 -2.22167 -0.733487 0.20892 -2.03217e-16 0.0 -3.88251e-19 2.64726 -27.7583 -2.59761 -0.254206 34.1802 0.273961 -3.75743 -6.27576 -16.1208 2.03217e-16 0.0 3.88251e-19 5.61629 -12.6526 -0.362311 1.03352 58.9846 -1.34576 0.419162 16.4729 0.229664
